<svg xmlns="http://www.w3.org/2000/svg" viewBox="0 0 850.39 226.77"><defs><style>.cls-1{fill:#fff;}.cls-2{fill:#5f5f0d;}.cls-3{fill:#e3e320;}.cls-4{fill:#803d0e;}.cls-5{fill:#c8631c;}.cls-6{fill:#450a0a;}.cls-7{fill:#bc1b1b;}.cls-8{fill:#060636;}.cls-9{fill:#1e1ecf;}.cls-10{fill:#123f7d;}.cls-11{fill:#3d8ff8;}.cls-12{fill:#10737d;}.cls-13{fill:#24c9c9;}.cls-14{fill:#065606;}.cls-15{fill:#1cb71c;}.cls-16{fill:#5e811d;}.cls-17{fill:#8fc232;}</style></defs><g id="ElementLayer"><rect class="cls-1" width="850.39" height="226.77"/><g id="Element"><path class="cls-2" d="M37.44,178.43a5.37,5.37,0,0,0,2.07,2.35.83.83,0,0,0,1.1-.1,45.76,45.76,0,0,0,3.76-3.74.69.69,0,0,0,.58,0l9.17-15.24-.8,0,1.09-1.6.51.21,2.25-3.73a23,23,0,0,1-1-2.55,1.87,1.87,0,0,1,.1-.81l.58-.58a2.69,2.69,0,0,0,1.33-.31c.67-.08.25-.54.18-.72a4.67,4.67,0,0,1,.33-4.13c.81-1.66,1.69-3.29,2.59-4.93a9.71,9.71,0,0,0-3.77-2.24l-1.92,3.35c-1-1.9-1.91-3.78-3-5.52a3.72,3.72,0,0,1-.39-3.68c.16-.39.49-.89.09-1.37h0A3.19,3.19,0,0,0,49.34,132c-1.09-2.07-2.28-4.08-3.51-6.07-.14-.23-.21-.61-.63-.5a3.29,3.29,0,0,0-3,1.61c-.41.45-.07.81.15,1.17,1.59,2.67,3.12,5.37,4.51,8.15a1.19,1.19,0,0,1,.18.86c-.4,1.47-.78,3-1.19,4.52a10.88,10.88,0,0,1-1.32-2.46A28.91,28.91,0,0,0,42.21,134c-.41-.71-.66-1.68-1.72-1.83a2.8,2.8,0,0,0-2.53,1,1.62,1.62,0,0,0-.51,1c-.05,1.14-.11,2.28-.21,3.42-.19,2.27-.41,4.53-.62,6.89a15.87,15.87,0,0,1-2-1.81c.47-2.91.62-5.82.94-8.72,0-.28.22-.68-.3-.78a10.27,10.27,0,0,0-3.17-.36c-.42-.05-.6.14-.62.55s-.06.59-.09.89c-.18,1.88-.37,3.76-.57,5.8a1.13,1.13,0,0,0-1.74,0,3.58,3.58,0,0,0-1.27,2.11,1,1,0,0,0,.52,1.3c.6.35,1.17.75,1.78,1.14-.2,1.17-.39,2.3-.62,3.67L27,144.82c-.14-.21-.18-.56-.58-.41a8.22,8.22,0,0,0-2.9,1.85c-.33.22-.2.44,0,.69a42.4,42.4,0,0,0,5,6.54,1.52,1.52,0,0,1,.51,1.22c-.09,2.37-.06,4.75,0,7.13a28.81,28.81,0,0,0,.65,5,2.15,2.15,0,0,1,.8-.09c2.63.4,2.8-1.54,2.8-1.54a30.76,30.76,0,0,0,0-3.61c-.06-1,0-2,0-3.18l2.59,2.17c-.16,2.19-.16,2.19,1.44,2.82-.1.38-.21.76-.34,1.41l.23,9.63c.88.28,1.79.53,2.76.82-.79.76-1.48,1.45-2.21,2.1A.84.84,0,0,0,37.44,178.43Zm13.09-25.38a21.27,21.27,0,0,0-1.69-4.15,1.17,1.17,0,0,1-.22-.85c.5-1.77,1-3.55,1.53-5.5,1.23,2.22,2.07,4.41,3.06,6.55.81,1.77.15,2.2.08,2.43a15.41,15.41,0,0,0-.35,2.58s0,0,0,0-.43.56-.5.55A2.08,2.08,0,0,1,50.53,153.05Zm-9.35-10.92.13,0c.85,2.08,1.73,4.16,2.54,6.25.22.57-.28,1.08-.39,1.7a23.47,23.47,0,0,1-2.86-1.93C40.79,146.12,41,144.12,41.18,142.13ZM33.29,152a39.34,39.34,0,0,1,.46-4.17,15,15,0,0,1,2.09,1.81.65.65,0,0,1,.22.5c0,1.6,0,3.2,0,4.8l-.3.14-2.29-2.41A.74.74,0,0,1,33.29,152Zm10.46,7.28a2.13,2.13,0,0,0,0-1h0l-3.34-1.35c-.17-1.18,0-2.38-.11-3.62.6.12.94.55,1.45.76l-.46,1.2A13.05,13.05,0,0,0,45,157l2.73-.25c.16,0,1.93,1.27,2.2,1.36.42.37-7.82,10.55-8.52,10.79C40.76,168.08,42.78,162,43.75,159.32Z"/><path class="cls-2" d="M57.22,161.53l-3.1.18L45,177c.66.23.54-.57,1-.75l1,.13a27.51,27.51,0,0,0,6.28.34,4.76,4.76,0,0,0,3.35-1.43c.17.08.31-.22.5-.07a4.21,4.21,0,0,0,.55,2.44,1.18,1.18,0,0,0,1.42.66c2-.5,4.08-1,6.13-1.45.3-.07.6-.13.66-.5a3.32,3.32,0,0,0-.59-3.46c-.31-.53-.78-.41-1.23-.31l-4,.93c.42-2.55.82-4.93,1.22-7.35,2.42.09,4.76.17,7.1.28.48,0,.81,0,.92-.56a9.38,9.38,0,0,0,.15-3.42c-.07-.41-.29-.54-.68-.55-.85,0-1.69,0-2.53-.1a42.25,42.25,0,0,1-4.33-.21c.14-1.2.28-2.33.42-3.47,0-.31.19-.7-.39-.67a10.86,10.86,0,0,0-3.63-.47c-.39-.09-.84,0-1.17-.32l-2.24,3.73A17.64,17.64,0,0,1,57.22,161.53Zm-2.7,9.89c-1.54,1.5-3.56.87-5.56.64A82.52,82.52,0,0,1,55,166.17l.8,0C56,168.09,55.94,170,54.52,171.42Z"/><path class="cls-3" d="M52.92,152.47a39,39,0,0,1,4.39-10.62c.1-.15.24-.28.4-.47l2.58,1.46c-.61,1.18-1.21,2.31-1.79,3.44a37.5,37.5,0,0,0-2.67,7.2,2.2,2.2,0,0,0-.1.8c.17.69-.2,3.33-.8,3.8a14.68,14.68,0,0,0-3.84,5.11A50.76,50.76,0,0,1,49,167.92c-1.48,3.09-3,6.15-4.52,9.22a.64.64,0,0,1-.57,0,7.81,7.81,0,0,1-2.27-1c-.38-.32-.49-.59-.27-1,.94-1.9,2-3.73,3-5.65a85.37,85.37,0,0,1,5.08-9c.64-1,1.74-2.44,2.53-3.47C52.57,156.17,52.82,152.87,52.92,152.47Z"/><path class="cls-3" d="M31.85,166.39c-.67,0-1.31.32-2,.2a21.91,21.91,0,0,1-.59-4.45,95.63,95.63,0,0,1,.19-11.48c.4-4,1.38-7.94,1.71-12,.15-1.9.33-3.8.5-5.7a10.34,10.34,0,0,1,3.18.37c-.48,4.74-.91,9.48-1.82,14.17a39.5,39.5,0,0,0-.57,5.44c-.1,2.08-.09,4.15-.09,6.23a40,40,0,0,0,.31,4.64c0,.42,0,2.24-.79,2.54"/><path class="cls-3" d="M64.87,173.05a3.32,3.32,0,0,1,.6,3.46,5.42,5.42,0,0,0-2.28.4c-1.36.27-2.72.62-4.14,1a6.15,6.15,0,0,0-.45-2.58c-.61-.12-1.19-.24-1.78-.33-.36-.06-.68,0-.62.48h0c-.73-.18-1.18.45-1.79.62-1.89.53-5.86,0-7.85-.28.3-1,1.53-1.59,1.7-2.63,1.9.13,4.78.88,6.59-.66l-.27,2.09c.27.19.49.25.69.12.56-3.11,1.19-6.18,1.61-9.28.37-2.75.84-5.48,1-8.25a10.66,10.66,0,0,1,3.64.47c0,1-.2,2-.32,3-.57,4.68-1.34,9.33-2.16,14,0,.27-.2.56.13.79.3-.17.23-.44.28-.67s.12-.56.44-.62C61.59,173.81,63.19,173.24,64.87,173.05Z"/><path class="cls-3" d="M40.07,132.34c1.31,1.75.67,3.7.53,5.59s-.3,3.8-.48,5.7c-.29,3.15-.6,6.29-.74,9.45q0,.73,0,1.47a12.1,12.1,0,0,1-.33,2.17,34.52,34.52,0,0,1-1.82,5.57H36a4.91,4.91,0,0,1,.11-1.8c.25-2.4.06-4.8.08-7.21,0-2.64.3-5.27.58-7.89s.44-5,.66-7.49c.09-.95.18-1.89.28-2.84a3.6,3.6,0,0,0-.18-1.69A2.75,2.75,0,0,1,40.07,132.34Z"/><path class="cls-3" d="M51.85,133.34c-.86,2.53-1.39,5.15-2.09,7.72-1.17,4.29-2.15,8.64-3.71,12.81-.24.67-.54,1.31-.84,1.95a2.63,2.63,0,0,0-.27,1.1h0a28.14,28.14,0,0,1-3.45-1.47c.68-1.7,1.32-3.31,2-4.93,1.22-3.1,1.92-6.36,2.87-9.55.82-2.74,1.33-5.56,2.22-8.28.08-.22.1-.43.37-.48A3.22,3.22,0,0,1,51.85,133.34Z"/><path class="cls-3" d="M43.35,158.48a17.68,17.68,0,0,1-1.33,3.6c-1.13,2.68-2.23,11.89-2.48,12.42.31.46-2.11.34-2.26-.12-.52-1.65-.47-7.06-.13-8.74A42.39,42.39,0,0,1,40,157.13Z"/><path class="cls-3" d="M50.69,166.21a12.27,12.27,0,0,1,.92-2.09,2.8,2.8,0,0,1,3.22-2c.54,0,1.08,0,1.63,0a19.21,19.21,0,0,1-.42,3.49A44.48,44.48,0,0,0,50.69,166.21Z"/><path class="cls-3" d="M68.57,162.44a14.72,14.72,0,0,0-.26,3.31c-2.44-.42-4.8,0-7.21-.4a20.71,20.71,0,0,1,.37-3.1C63.84,162.48,66.16,162.34,68.57,162.44Z"/></g><g id="Element-2" data-name="Element"><path class="cls-4" d="M97.84,188.16a5.28,5.28,0,0,0,3.12.2.82.82,0,0,0,.7-.85,44.8,44.8,0,0,0,0-5.31c.18-.1.36-.18.41-.4l-4.27-17.27-.54.6-.34-1.9.51-.21-1-4.23a23.9,23.9,0,0,1-2.52-1.09,2.09,2.09,0,0,1-.5-.64v-.82a2.74,2.74,0,0,0,.72-1.17c.43-.53-.2-.56-.37-.63A4.67,4.67,0,0,1,91,151.28c-.6-1.75-1.13-3.52-1.65-5.32a9.75,9.75,0,0,0-4.25,1.09l1,3.73c-2.07-.63-4-1.33-6-1.78a3.74,3.74,0,0,1-2.87-2.33c-.17-.39-.29-1-.91-1h0a3.25,3.25,0,0,0-2.89,1.28c-2.23-.69-4.49-1.28-6.76-1.81-.26-.06-.58-.28-.8.09a3.33,3.33,0,0,0-1,3.24c0,.61.53.62.94.73,3,.75,6,1.59,8.95,2.57a1.09,1.09,0,0,1,.72.48c.77,1.32,1.54,2.64,2.36,4a10.17,10.17,0,0,1-2.67-.8,29.21,29.21,0,0,0-5.43-2.1c-.78-.21-1.64-.72-2.5-.08a2.78,2.78,0,0,0-1,2.53,1.59,1.59,0,0,0,.33,1.06c.77.84,1.53,1.7,2.27,2.57,1.46,1.74,2.91,3.49,4.42,5.31a15.07,15.07,0,0,1-2.71.15c-1.72-2.38-3.67-4.56-5.49-6.83-.18-.22-.32-.64-.76-.34a10.25,10.25,0,0,0-2.5,2,.5.5,0,0,0-.05.83c.2.22.38.46.57.69L66,165.73c-.87.08-1.22.52-1.2,1.25a3.54,3.54,0,0,0,.59,2.39,1,1,0,0,0,1.28.56c.68-.18,1.36-.31,2.06-.46l2.16,3-4.2-.72c-.24,0-.52-.27-.69.12a8.16,8.16,0,0,0-.75,3.37c-.08.38.17.45.46.51a41.58,41.58,0,0,0,8.15,1.08,1.56,1.56,0,0,1,1.23.51c1.61,1.74,3.31,3.41,5.06,5a28.9,28.9,0,0,0,4,3.07,2.21,2.21,0,0,1,.51-.63c2.14-1.58.89-3.07.89-3.07A30.68,30.68,0,0,0,83,179.2c-.75-.66-1.44-1.41-2.26-2.22l3.35-.3c1.44,1.67,1.44,1.67,3,1,.19.34.39.69.75,1.24l7,6.64c.83-.42,1.64-.89,2.54-1.37,0,1.09,0,2.07-.08,3.05A.82.82,0,0,0,97.84,188.16ZM89.17,161A20.88,20.88,0,0,0,85,159.21c-.28-.1-.59-.15-.75-.45l-2.81-5c2.44.69,4.58,1.65,6.79,2.46,1.83.67,1.66,1.45,1.78,1.66A14.6,14.6,0,0,0,91.63,160s0,0,0,0a1.15,1.15,0,0,1,0,.75A2.08,2.08,0,0,1,89.17,161Zm-14.33-1.11.07-.12c2.07.87,4.15,1.72,6.21,2.63.56.24.56,1,.92,1.47a23.33,23.33,0,0,1-3.39.66Zm1.42,12.59a37.28,37.28,0,0,1-2.62-3.28A15.63,15.63,0,0,1,76.4,169a.64.64,0,0,1,.51.2c1.12,1.13,2.26,2.25,3.4,3.38l-.12.31-3.32-.08A.78.78,0,0,1,76.26,172.43Zm12.54-2.25c-.32-.43-.64-.78-.72-.75h0l-3.31,1.41c-1-.72-1.7-1.66-2.64-2.49.51-.33,1.05-.26,1.57-.48.16.38.32.74.51,1.17a13.23,13.23,0,0,0,3.88-1.39l1.74-2.11c.09-.15,2.27-.47,2.52-.6.56,0,1.92,13,1.6,13.66C92.87,178.49,90,172.74,88.8,170.18Z"/><path class="cls-4" d="M99.88,162.21l-2.06,2.32,4.27,17.27c.64-.31,0-.78.19-1.25l.83-.64a27.46,27.46,0,0,0,4.68-4.2,4.77,4.77,0,0,0,1.36-3.38c.18-.07.07-.37.31-.41a4.13,4.13,0,0,0,2.11,1.34,1.2,1.2,0,0,0,1.47-.53c1.08-1.8,2.2-3.59,3.31-5.37.16-.26.33-.51.12-.82a3.32,3.32,0,0,0-2.87-2c-.59-.16-.84.26-1.09.65l-2.16,3.47L106,162.57c1.78-1.65,3.49-3.25,5.22-4.83.35-.31.54-.61.25-1.05a9.24,9.24,0,0,0-2.31-2.52.58.58,0,0,0-.86.1c-.61.58-1.23,1.16-1.87,1.72a39,39,0,0,1-3.21,2.91l-2.15-2.75c-.19-.25-.36-.63-.74-.2a10.73,10.73,0,0,0-2.91,2.24c-.34.21-.59.59-1,.6l1,4.23A17.72,17.72,0,0,1,99.88,162.21Zm5.08,8.9c0,2.16-1.9,3.14-3.48,4.39-.19-2.85,0-5.55.13-8.45l.54-.61C103.68,167.69,105,169.12,105,171.11Z"/><path class="cls-5" d="M90.45,158.85a39,39,0,0,1-4.39-10.62,3.52,3.52,0,0,1-.06-.62l2.86-.79c.4,1.27.77,2.49,1.16,3.7a38.28,38.28,0,0,0,3.2,7,2.09,2.09,0,0,0,.5.64c.6.37,2.2,2.5,2.11,3.26a14.68,14.68,0,0,0,.89,6.32,49.27,49.27,0,0,1,1.89,4.8c1.14,3.23,2.22,6.48,3.32,9.72-.05.22-.24.3-.41.4a8,8,0,0,1-2.35.86c-.5,0-.76-.07-.91-.53-.68-2-1.2-4.08-1.9-6.09a83.8,83.8,0,0,1-2.76-9.95c-.25-1.15-.49-3-.66-4.24C92.81,161.71,90.66,159.2,90.45,158.85Z"/><path class="cls-5" d="M85.37,183.6c-.49.46-.69,1.16-1.29,1.58a21.94,21.94,0,0,1-3.56-2.73,95.5,95.5,0,0,1-8-8.25c-2.56-3.12-4.63-6.59-7.24-9.67-1.23-1.46-2.44-2.93-3.67-4.39a10.3,10.3,0,0,1,2.51-2c3,3.69,6,7.35,8.72,11.31a37.81,37.81,0,0,0,3.44,4.25c1.39,1.54,2.86,3,4.33,4.47a39.55,39.55,0,0,0,3.51,3.07c.32.25,1.53,1.61,1.22,2.35"/><path class="cls-5" d="M113.44,165a3.28,3.28,0,0,1,2.86,2c-.69.45-.9,1.25-1.33,1.89-.77,1.16-1.49,2.37-2.26,3.61a6.09,6.09,0,0,0-2.14-1.51c-.51.35-1,.68-1.49,1-.29.21-.5.46-.09.77h0c-.65.39-.52,1.15-.84,1.71-1,1.71-4.16,4.13-5.75,5.36-.5-.93,0-2.21-.65-3.07,1.44-1.25,4-2.75,4.19-5.13l1.29,1.67c.33-.05.52-.17.57-.4-1.8-2.6-3.52-5.21-5.41-7.7-1.68-2.2-3.28-4.48-5.1-6.57a10.58,10.58,0,0,1,2.91-2.24c.69.73,1.27,1.56,1.89,2.35,2.91,3.71,5.65,7.55,8.34,11.41.16.23.26.54.65.47.1-.33-.15-.48-.27-.67s-.31-.48-.12-.75C111.65,167.81,112.38,166.27,113.44,165Z"/><path class="cls-5" d="M67.14,153.7c2.17.31,3.09,2.14,4.33,3.58s2.47,2.9,3.68,4.37c2,2.43,4,4.87,6.15,7.2.34.37.68.72,1,1.05a11.19,11.19,0,0,1,1.3,1.77,34.21,34.21,0,0,1,2.65,5.23l-.86.87a4.89,4.89,0,0,1-1.19-1.35c-1.52-1.88-3.35-3.45-5-5.16-1.86-1.89-3.51-3.94-5.17-6s-3.21-3.84-4.82-5.76c-.61-.73-1.21-1.46-1.81-2.2a3.72,3.72,0,0,0-1.32-1.08A2.77,2.77,0,0,1,67.14,153.7Z"/><path class="cls-5" d="M76.18,146.07c1.18,2.4,2.65,4.63,4,7,2.2,3.86,4.57,7.62,6.42,11.68.3.64.54,1.31.78,2a2.63,2.63,0,0,0,.59,1h0A27.73,27.73,0,0,1,84.47,169c-.72-1.67-1.4-3.27-2.09-4.86-1.33-3.06-3.14-5.87-4.72-8.79-1.35-2.52-3-4.88-4.28-7.43-.1-.21-.23-.37-.08-.6A3.2,3.2,0,0,1,76.18,146.07Z"/><path class="cls-5" d="M87.92,169.87a16.61,16.61,0,0,1,1.6,3.48c1.1,2.7,6.83,10,7,10.55.54.1-1.25,1.73-1.68,1.51-1.53-.8-5.32-4.66-6.27-6.09a42.36,42.36,0,0,1-4-8Z"/><path class="cls-5" d="M98.57,170.14a12.92,12.92,0,0,1-.82-2.12,2.82,2.82,0,0,1,.88-3.68,15.72,15.72,0,0,0,1.16-1.15A19.23,19.23,0,0,1,102,166,48.59,48.59,0,0,0,98.57,170.14Z"/><path class="cls-5" d="M108.56,154.82a14.74,14.74,0,0,0,2.15,2.53c-2,1.43-3.37,3.41-5.38,4.82a20.82,20.82,0,0,1-1.93-2.46C105.24,158.19,106.79,156.46,108.56,154.82Z"/></g><g id="Element-3" data-name="Element"><path class="cls-6" d="M146.85,152.37a5.28,5.28,0,0,0,2.36-2.05.82.82,0,0,0-.09-1.09,44.48,44.48,0,0,0-3.71-3.81.67.67,0,0,0,0-.57l-15.15-9.32.05.81-1.59-1.11.22-.51-3.71-2.28a24.3,24.3,0,0,1-2.56,1,2,2,0,0,1-.8-.11l-.58-.58a2.83,2.83,0,0,0-.3-1.34c-.07-.68-.53-.26-.71-.19a4.68,4.68,0,0,1-4.13-.36c-1.65-.83-3.27-1.72-4.9-2.64A9.79,9.79,0,0,0,109,132l3.33,1.95c-1.91,1-3.79,1.87-5.54,3a3.72,3.72,0,0,1-3.68.36c-.39-.16-.89-.5-1.37-.1h0a3.22,3.22,0,0,0-1.17,2.93c-2.07,1.08-4.09,2.24-6.09,3.46-.23.14-.6.2-.5.63a3.31,3.31,0,0,0,1.58,3c.44.41.81.07,1.17-.14,2.68-1.58,5.39-3.08,8.18-4.45a1.14,1.14,0,0,1,.86-.17c1.47.41,2.94.8,4.5,1.22a10.47,10.47,0,0,1-2.46,1.31,28.26,28.26,0,0,0-5.34,2.31c-.71.39-1.68.64-1.84,1.7a2.79,2.79,0,0,0,1,2.54,1.58,1.58,0,0,0,1,.52c1.14.06,2.28.13,3.42.24,2.26.21,4.51.45,6.87.68a16.61,16.61,0,0,1-1.83,2c-2.9-.5-5.81-.68-8.7-1-.28,0-.68-.23-.78.29a10.29,10.29,0,0,0-.39,3.17c0,.42.14.6.54.63s.6.06.89.09l5.79.63a1.13,1.13,0,0,0,0,1.74,3.55,3.55,0,0,0,2.1,1.29,1,1,0,0,0,1.3-.51c.35-.6.76-1.17,1.15-1.77l3.66.65c-1.29.9-2.39,1.67-3.5,2.43-.2.15-.56.18-.41.58a8.11,8.11,0,0,0,1.83,2.92c.21.33.43.2.68,0a41.74,41.74,0,0,0,6.58-4.94,1.5,1.5,0,0,1,1.22-.5c2.37.11,4.75.1,7.12,0a29.67,29.67,0,0,0,5-.6,2.76,2.76,0,0,1-.08-.81c.42-2.62-1.51-2.81-1.51-2.81a29.15,29.15,0,0,0-3.61,0c-1,.05-2,0-3.17,0l2.19-2.56c2.19.17,2.19.17,2.83-1.43.37.11.76.22,1.4.36l9.62-.15c.29-.88.55-1.78.85-2.75.75.79,1.43,1.49,2.08,2.23A.83.83,0,0,0,146.85,152.37ZM121.6,139.05a21.49,21.49,0,0,0-4.16,1.66,1.16,1.16,0,0,1-.85.21l-5.47-1.58c2.22-1.21,4.41-2,6.57-3,1.77-.8,2.19-.14,2.42-.06a15.94,15.94,0,0,0,2.58.37l0,0c.15,0,.55.43.54.51A2.08,2.08,0,0,1,121.6,139.05Zm-11,9.27,0-.14c2.08-.83,4.16-1.69,6.26-2.48.58-.22,1.07.28,1.7.4a23.57,23.57,0,0,1-2,2.85Zm9.84,8a39.7,39.7,0,0,1-4.17-.5,14.92,14.92,0,0,1,1.83-2.07.65.65,0,0,1,.5-.22c1.6,0,3.2,0,4.8,0l.13.31-2.42,2.27A.78.78,0,0,1,120.45,156.3Zm7.36-10.41c-.53-.08-1-.11-1,0h0c-.46,1.1-.92,2.21-1.37,3.32-1.19.16-2.38,0-3.63.08.13-.6.57-.93.78-1.44l1.19.47a13.08,13.08,0,0,0,1.78-3.71l-.23-2.73c0-.17,1.29-1.93,1.38-2.19.37-.42,10.47,7.92,10.71,8.62C136.53,149,130.44,146.89,127.81,145.89Z"/><path class="cls-6" d="M130.13,132.43l.15,3.1,15.15,9.32c.23-.66-.56-.55-.74-1l.14-1a28.12,28.12,0,0,0,.4-6.28,4.79,4.79,0,0,0-1.41-3.37c.09-.17-.21-.31-.06-.5a4.14,4.14,0,0,0,2.44-.53,1.19,1.19,0,0,0,.68-1.41c-.49-2-.94-4.1-1.4-6.15-.07-.3-.12-.6-.5-.67a3.3,3.3,0,0,0-3.46.57c-.53.3-.41.77-.31,1.22.28,1.29.57,2.58.88,4l-7.32-1.28c.11-2.43.21-4.77.34-7.11,0-.47-.05-.81-.56-.92a9.11,9.11,0,0,0-3.41-.18c-.41.06-.54.29-.55.67,0,.85-.06,1.69-.12,2.54-.11,1.43,0,2.87-.25,4.33l-3.47-.45c-.31,0-.69-.2-.67.38a10.88,10.88,0,0,0-.5,3.63c-.1.39,0,.84-.33,1.17l3.71,2.28A17.16,17.16,0,0,1,130.13,132.43Zm9.85,2.79c1.5,1.56.85,3.57.6,5.57-2.14-1.9-3.86-4-5.83-6.12l0-.81C136.67,133.68,138.61,133.78,140,135.22Z"/><path class="cls-7" d="M121.05,136.66a38.86,38.86,0,0,1-10.57-4.5,3.71,3.71,0,0,1-.47-.39l1.48-2.58,3.42,1.83a38.11,38.11,0,0,0,7.17,2.73,2,2,0,0,0,.8.11c.69-.16,3.33.23,3.79.84a14.57,14.57,0,0,0,5.07,3.88,50.61,50.61,0,0,1,4.7,2.1c3.08,1.5,6.12,3.06,9.18,4.6a.67.67,0,0,1,0,.57,7.86,7.86,0,0,1-1.07,2.27.74.74,0,0,1-1,.26c-1.89-1-3.71-2.07-5.62-3a82.46,82.46,0,0,1-8.93-5.16c-1-.65-2.42-1.76-3.44-2.56C124.74,137,121.44,136.76,121.05,136.66Z"/><path class="cls-7" d="M134.77,157.87c0,.67.31,1.31.18,2a22,22,0,0,1-4.46.56,95.13,95.13,0,0,1-11.45-.3c-4-.43-7.93-1.45-11.94-1.81-1.9-.17-3.79-.37-5.69-.56a10.71,10.71,0,0,1,.39-3.18c4.74.52,9.47,1,14.15,1.95a37.76,37.76,0,0,0,5.43.62c2.07.12,4.14.13,6.21.15a40,40,0,0,0,4.65-.28c.41-.05,2.23.08,2.53.82"/><path class="cls-7" d="M141.71,124.87a3.33,3.33,0,0,1,3.47-.57,5.44,5.44,0,0,0,.37,2.29c.26,1.37.59,2.73.91,4.15a6.17,6.17,0,0,0-2.58.43c-.12.61-.25,1.19-.34,1.78-.06.36,0,.68.47.62h0c-.19.73.44,1.19.6,1.8.52,1.89-.07,5.86-.35,7.86-1-.31-1.57-1.55-2.61-1.73.15-1.9.92-4.77-.6-6.6l2.09.29c.19-.27.25-.49.13-.69-3.11-.59-6.17-1.24-9.26-1.69-2.74-.4-5.47-.9-8.24-1.11a10.69,10.69,0,0,1,.51-3.64c1,0,2,.22,3,.35,4.67.61,9.3,1.42,13.93,2.28.27.05.57.2.79-.12-.16-.3-.43-.24-.66-.29s-.56-.12-.61-.45C142.44,128.17,141.89,126.56,141.71,124.87Z"/><path class="cls-7" d="M100.82,149.34c1.77-1.3,3.71-.64,5.6-.49s3.79.34,5.68.54c3.14.32,6.28.66,9.43.82.49,0,1,0,1.48,0a11.19,11.19,0,0,1,2.16.35,33.55,33.55,0,0,1,5.55,1.87v1.22a5.1,5.1,0,0,1-1.8-.12,69.21,69.21,0,0,0-7.2-.15,77,77,0,0,1-7.88-.66c-2.49-.28-5-.48-7.47-.72-1-.09-1.89-.19-2.84-.3a3.59,3.59,0,0,0-1.69.16A2.78,2.78,0,0,1,100.82,149.34Z"/><path class="cls-7" d="M101.93,137.56c2.52.88,5.13,1.44,7.69,2.16,4.28,1.21,8.61,2.23,12.77,3.82.66.25,1.3.56,1.94.86a2.59,2.59,0,0,0,1.09.28h0a28.27,28.27,0,0,1-1.51,3.44l-4.9-2c-3.09-1.26-6.34-2-9.52-3-2.73-.84-5.54-1.38-8.25-2.3-.22-.07-.43-.09-.48-.36A3.22,3.22,0,0,1,101.93,137.56Z"/><path class="cls-7" d="M127,146.29a16.91,16.91,0,0,1,3.59,1.36c2.67,1.16,11.86,2.34,12.38,2.59.47-.31.33,2.12-.13,2.26-1.66.5-7.06.41-8.74.06a42.27,42.27,0,0,1-8.47-2.94Z"/><path class="cls-7" d="M134.75,139a13,13,0,0,1-2.08-.94,2.81,2.81,0,0,1-1.94-3.24c.06-.54,0-1.09,0-1.63a19.3,19.3,0,0,1,3.48.45A44.31,44.31,0,0,0,134.75,139Z"/><path class="cls-7" d="M131.14,121.07a15.27,15.27,0,0,0,3.31.3c-.44,2.43,0,4.8-.46,7.21a19.52,19.52,0,0,1-3.1-.4C131.14,125.81,131,123.48,131.14,121.07Z"/></g><g id="Element-4" data-name="Element"><path class="cls-8" d="M157,92.4a5.21,5.21,0,0,0,.23-3.12.82.82,0,0,0-.84-.71,44.81,44.81,0,0,0-5.31-.08c-.09-.17-.17-.36-.39-.41L133.36,92.2l.6.54-1.91.34-.21-.52-4.23,1a23,23,0,0,1-1.11,2.52,1.92,1.92,0,0,1-.64.49H125a2.79,2.79,0,0,0-1.15-.73c-.53-.43-.56.19-.64.37a4.64,4.64,0,0,1-3.18,2.66c-1.75.59-3.52,1.1-5.33,1.61a9.78,9.78,0,0,0,1,4.26l3.74-1c-.65,2.07-1.36,4-1.84,6a3.7,3.7,0,0,1-2.35,2.86c-.39.16-1,.27-1,.9h0a3.2,3.2,0,0,0,1.25,2.9c-.71,2.22-1.32,4.48-1.87,6.75-.06.26-.29.58.09.81a3.3,3.3,0,0,0,3.23,1c.6,0,.62-.52.73-.93.78-3,1.64-6,2.64-8.94a1.17,1.17,0,0,1,.49-.72c1.33-.75,2.65-1.51,4.05-2.32a10.63,10.63,0,0,1-.82,2.67,28,28,0,0,0-2.15,5.41c-.22.78-.73,1.64-.1,2.5a2.76,2.76,0,0,0,2.51,1.08,1.56,1.56,0,0,0,1.06-.33c.86-.76,1.71-1.51,2.59-2.24,1.75-1.45,3.52-2.88,5.35-4.38a16,16,0,0,1,.13,2.71c-2.4,1.7-4.59,3.63-6.88,5.44-.22.18-.64.32-.34.76a10.42,10.42,0,0,0,2,2.52.5.5,0,0,0,.83.06c.22-.2.46-.38.69-.57l4.54-3.65c.08.88.51,1.24,1.24,1.22a3.57,3.57,0,0,0,2.4-.57,1,1,0,0,0,.56-1.28c-.17-.68-.29-1.37-.44-2.07l3.05-2.13c-.27,1.54-.51,2.87-.76,4.19,0,.25-.27.53.12.7a8.1,8.1,0,0,0,3.35.78c.39.09.45-.16.52-.46a42.25,42.25,0,0,0,1.16-8.15,1.55,1.55,0,0,1,.51-1.22c1.76-1.59,3.43-3.28,5.05-5a28.29,28.29,0,0,0,3.1-4,2.77,2.77,0,0,1-.63-.51c-1.55-2.16-3.05-.92-3.05-.92a29.51,29.51,0,0,0-2.57,2.54c-.67.75-1.42,1.43-2.24,2.24-.09-1.22-.18-2.3-.26-3.36,1.67-1.42,1.67-1.42,1-3,.34-.19.69-.38,1.24-.74l6.7-6.91c-.42-.83-.87-1.65-1.34-2.55,1.09,0,2.06,0,3,.11A.83.83,0,0,0,157,92.4Zm-27.26,8.43a21.5,21.5,0,0,0-1.77,4.12c-.1.28-.16.58-.45.75l-5,2.76c.71-2.43,1.69-4.56,2.52-6.77.69-1.83,1.46-1.65,1.68-1.76a14.93,14.93,0,0,0,2.08-1.57h0a1.21,1.21,0,0,1,.75,0A2.08,2.08,0,0,1,129.7,100.83Zm-1.23,14.34-.12-.08c.89-2.06,1.75-4.14,2.68-6.19.25-.56,1-.55,1.48-.91a23.37,23.37,0,0,1,.63,3.4Zm12.59-1.32a37.52,37.52,0,0,1-3.3,2.6,14.62,14.62,0,0,1-.16-2.76.62.62,0,0,1,.19-.51c1.15-1.12,2.28-2.25,3.41-3.38l.31.12c0,1.11-.08,2.22-.11,3.32A.76.76,0,0,1,141.06,113.85Zm-2.14-12.57c-.43.32-.78.63-.75.71h0c.46,1.11.92,2.22,1.37,3.33-.72,1-1.67,1.69-2.5,2.63-.34-.52-.26-1.06-.47-1.58l1.17-.51a12.89,12.89,0,0,0-1.36-3.88l-2.08-1.77c-.15-.09-.45-2.28-.58-2.53,0-.56,13-1.8,13.66-1.47C147.26,97.28,141.49,100.12,138.92,101.28Z"/><path class="cls-8" d="M131.06,90.12l2.3,2.08,17.29-4.12c-.31-.64-.78,0-1.25-.2l-.63-.83a27.93,27.93,0,0,0-4.15-4.73,4.8,4.8,0,0,0-3.37-1.39c-.07-.18-.37-.07-.4-.31a4.23,4.23,0,0,0,1.35-2.1,1.2,1.2,0,0,0-.52-1.48c-1.79-1.1-3.56-2.23-5.33-3.36-.26-.16-.51-.34-.82-.12a3.3,3.3,0,0,0-2.05,2.85c-.17.59.25.84.64,1.09l3.44,2.19L131.48,84c-1.64-1.8-3.22-3.52-4.78-5.27-.32-.35-.61-.54-1-.26a9.41,9.41,0,0,0-2.54,2.29.59.59,0,0,0,.09.87c.58.61,1.15,1.24,1.7,1.88a42.82,42.82,0,0,1,2.89,3.23L125,88.84c-.25.2-.64.36-.21.75A10.87,10.87,0,0,0,127,92.52c.21.34.58.6.59,1l4.23-1A18,18,0,0,1,131.06,90.12Zm8.94-5c2.15,0,3.12,1.92,4.35,3.52a82.29,82.29,0,0,1-8.44-.21l-.6-.54C136.56,86.37,138,85.07,140,85.12Z"/><path class="cls-9" d="M127.62,99.53a38.78,38.78,0,0,1-10.65,4.3,3.58,3.58,0,0,1-.61,0l-.77-2.86,3.7-1.14a37.22,37.22,0,0,0,7-3.13,2.13,2.13,0,0,0,.65-.5c.37-.6,2.52-2.18,3.27-2.08a14.77,14.77,0,0,0,6.33-.84,50.78,50.78,0,0,1,4.81-1.85c3.23-1.11,6.49-2.16,9.73-3.23.22,0,.3.24.4.41a7.82,7.82,0,0,1,.84,2.36c0,.5-.08.76-.53.91-2,.66-4.09,1.16-6.11,1.85a83.57,83.57,0,0,1-10,2.67c-1.16.24-3,.46-4.24.62C130.49,97.19,128,99.33,127.62,99.53Z"/><path class="cls-9" d="M152.3,104.83c.45.5,1.15.71,1.56,1.31a20.87,20.87,0,0,1-2.76,3.54,95.42,95.42,0,0,1-8.31,7.9c-3.14,2.53-6.63,4.59-9.73,7.17-1.46,1.22-2.94,2.42-4.41,3.63a10.51,10.51,0,0,1-2-2.53c3.72-3,7.4-6,11.38-8.63a38.69,38.69,0,0,0,4.28-3.4c1.55-1.38,3-2.84,4.5-4.3a39.19,39.19,0,0,0,3.09-3.48c.26-.33,1.63-1.52,2.37-1.21"/><path class="cls-9" d="M133.91,76.57A3.32,3.32,0,0,1,136,73.72c.45.7,1.24.92,1.87,1.35,1.16.79,2.36,1.51,3.59,2.3a6,6,0,0,0-1.53,2.13c.35.51.67,1,1,1.5.21.29.46.5.77.1h0c.38.65,1.15.53,1.7.85,1.7,1,4.08,4.2,5.3,5.81-.93.48-2.21,0-3.07.62-1.24-1.45-2.72-4-5.09-4.24l1.69-1.27c-.06-.33-.17-.53-.4-.59-2.61,1.79-5.24,3.49-7.74,5.36-2.22,1.66-4.5,3.24-6.61,5a10.57,10.57,0,0,1-2.21-2.93c.73-.69,1.57-1.26,2.36-1.87,3.74-2.88,7.59-5.59,11.48-8.25.22-.16.54-.25.47-.65-.33-.1-.48.15-.67.27s-.48.31-.75.12C136.76,78.39,135.23,77.64,133.91,76.57Z"/><path class="cls-9" d="M122.27,122.82c.33-2.17,2.16-3.08,3.61-4.31s2.92-2.44,4.4-3.64c2.45-2,4.9-4,7.25-6.09.36-.33.72-.68,1.06-1a10.48,10.48,0,0,1,1.77-1.28,32.5,32.5,0,0,1,5.25-2.61l.86.87a5.05,5.05,0,0,1-1.36,1.18c-1.89,1.5-3.47,3.32-5.2,5-1.9,1.84-4,3.47-6,5.11s-3.87,3.19-5.8,4.78c-.73.6-1.47,1.2-2.22,1.79a3.51,3.51,0,0,0-1.08,1.31A2.76,2.76,0,0,1,122.27,122.82Z"/><path class="cls-9" d="M114.73,113.7c2.4-1.16,4.64-2.61,7-3.92,3.87-2.17,7.66-4.51,11.72-6.33.65-.28,1.32-.52,2-.76a2.66,2.66,0,0,0,1-.58h0a27.88,27.88,0,0,1,1.36,3.5l-4.88,2c-3.07,1.3-5.89,3.09-8.82,4.64-2.53,1.34-4.9,3-7.47,4.22-.2.1-.37.23-.59.07A3.21,3.21,0,0,1,114.73,113.7Z"/><path class="cls-9" d="M138.6,102.16a16.89,16.89,0,0,1,3.5-1.57c2.7-1.07,10-6.74,10.59-6.93.11-.55,1.73,1.26,1.5,1.69-.82,1.53-4.7,5.28-6.14,6.22a41.78,41.78,0,0,1-8.07,3.92Z"/><path class="cls-9" d="M139,91.5a13.27,13.27,0,0,1-2.13.81,2.8,2.8,0,0,1-3.66-.92A15.84,15.84,0,0,0,132,90.22a20.78,20.78,0,0,1,2.79-2.14A45,45,0,0,0,139,91.5Z"/><path class="cls-9" d="M123.75,81.37a15.17,15.17,0,0,0,2.55-2.13c1.41,2,3.38,3.41,4.76,5.42a19.74,19.74,0,0,1-2.46,1.91C127.09,84.72,125.37,83.16,123.75,81.37Z"/></g><g id="Element-5" data-name="Element"><path class="cls-10" d="M121,42.7a5.25,5.25,0,0,0-2.08-2.34.82.82,0,0,0-1.1.1,47.39,47.39,0,0,0-3.75,3.75.67.67,0,0,0-.57,0L104.4,59.48l.8,0L104.11,61l-.51-.2-2.23,3.73a24.1,24.1,0,0,1,1,2.56,1.84,1.84,0,0,1-.1.8l-.58.59a2.69,2.69,0,0,0-1.33.31c-.67.08-.25.54-.17.72a4.67,4.67,0,0,1-.32,4.13c-.81,1.67-1.68,3.3-2.58,5a9.87,9.87,0,0,0,3.79,2.22l1.9-3.36c1,1.9,1.92,3.77,3,5.51a3.73,3.73,0,0,1,.41,3.68c-.16.4-.49.89-.09,1.37h0a3.22,3.22,0,0,0,2.94,1.13c1.11,2.07,2.3,4.07,3.53,6.06.15.22.22.6.64.49a3.27,3.27,0,0,0,3-1.62c.41-.44.07-.81-.15-1.17-1.61-2.66-3.14-5.36-4.54-8.13a1.17,1.17,0,0,1-.18-.85c.39-1.48.76-3,1.17-4.53A10.62,10.62,0,0,1,114,81.86a29,29,0,0,0,2.37,5.32c.41.7.66,1.67,1.72,1.81a2.75,2.75,0,0,0,2.53-1,1.6,1.6,0,0,0,.5-1c.06-1.14.11-2.29.2-3.42.19-2.27.4-4.53.6-6.89a15.91,15.91,0,0,1,2,1.8c-.45,2.91-.6,5.82-.9,8.72,0,.29-.23.69.3.78a10.26,10.26,0,0,0,3.17.35c.42,0,.6-.14.62-.55s0-.59.08-.89c.18-1.88.36-3.76.56-5.8a1.12,1.12,0,0,0,1.74,0,3.59,3.59,0,0,0,1.26-2.12,1,1,0,0,0-.52-1.29c-.61-.35-1.18-.75-1.79-1.13.2-1.18.38-2.31.61-3.68l2.47,3.47c.14.21.18.56.58.41a8.11,8.11,0,0,0,2.89-1.86c.33-.22.2-.44,0-.69a42.36,42.36,0,0,0-5-6.52,1.53,1.53,0,0,1-.52-1.22c.09-2.37.05-4.75-.06-7.13a29.6,29.6,0,0,0-.66-5,2.76,2.76,0,0,1-.81.09c-2.63-.39-2.79,1.55-2.79,1.55a28.67,28.67,0,0,0,0,3.61c.06,1,0,2,0,3.17l-2.59-2.16c.15-2.19.15-2.19-1.46-2.82.1-.37.21-.76.34-1.4l-.26-9.63c-.89-.28-1.8-.53-2.77-.81.79-.76,1.48-1.46,2.2-2.11A.84.84,0,0,0,121,42.7ZM108,68.13a21.26,21.26,0,0,0,1.71,4.14,1.22,1.22,0,0,1,.22.85c-.49,1.77-1,3.55-1.51,5.5-1.24-2.21-2.09-4.4-3.08-6.54-.83-1.77-.16-2.19-.09-2.43a14.92,14.92,0,0,0,.33-2.58s0,0,0,0,.43-.56.51-.55A2.09,2.09,0,0,1,108,68.13ZM117.41,79l-.14,0c-.85-2.08-1.74-4.15-2.55-6.24-.23-.57.27-1.08.38-1.7A22.42,22.42,0,0,1,118,73C117.78,75,117.6,77,117.41,79Zm7.85-10a39.62,39.62,0,0,1-.44,4.18,15.14,15.14,0,0,1-2.1-1.81.65.65,0,0,1-.22-.5c0-1.6,0-3.2,0-4.8l.31-.13c.76.79,1.52,1.6,2.3,2.39A.78.78,0,0,1,125.26,69.07Zm-10.48-7.24a2.13,2.13,0,0,0,0,1h0l3.34,1.33c.18,1.19,0,2.38.13,3.63-.61-.12-.94-.55-1.46-.76l.46-1.2a13.08,13.08,0,0,0-3.73-1.74l-2.72.27c-.17,0-1.94-1.27-2.21-1.35-.42-.37,7.79-10.58,8.48-10.83C117.74,53.06,115.74,59.18,114.78,61.83Z"/><path class="cls-10" d="M101.3,59.67l3.1-.19,9.12-15.27c-.67-.23-.54.56-1,.75l-1-.13a27.56,27.56,0,0,0-6.28-.32A4.77,4.77,0,0,0,101.84,46c-.17-.09-.31.21-.5.07a4.14,4.14,0,0,0-.56-2.44,1.18,1.18,0,0,0-1.41-.66c-2,.52-4.09,1-6.13,1.48-.3.07-.6.13-.66.5a3.32,3.32,0,0,0,.6,3.46c.31.53.78.4,1.24.3l4-.94c-.42,2.55-.8,4.93-1.19,7.35-2.43-.08-4.77-.15-7.11-.25-.47,0-.81.05-.92.57A9.31,9.31,0,0,0,89,58.81c.07.41.29.54.68.55.84,0,1.69,0,2.53.09a42.18,42.18,0,0,1,4.33.19c-.14,1.2-.28,2.34-.41,3.47,0,.32-.18.71.39.67a10.69,10.69,0,0,0,3.64.46c.39.1.83,0,1.17.31l2.23-3.73A17.59,17.59,0,0,1,101.3,59.67Zm2.67-9.9c1.53-1.51,3.55-.89,5.55-.66a82.31,82.31,0,0,1-6,5.91l-.81,0C102.46,53.11,102.55,51.17,104,49.77Z"/><path class="cls-11" d="M105.63,68.71a39,39,0,0,1-4.35,10.64c-.1.15-.24.28-.4.47L98.3,78.37c.61-1.18,1.2-2.31,1.77-3.45a37.68,37.68,0,0,0,2.65-7.2,2,2,0,0,0,.09-.81c-.16-.69.2-3.33.8-3.8A14.57,14.57,0,0,0,107.42,58c.58-1.62,1.31-3.19,2-4.74,1.46-3.09,3-6.16,4.48-9.24a.64.64,0,0,1,.57,0,7.83,7.83,0,0,1,2.28,1c.38.32.49.59.28,1-.94,1.91-2,3.74-2.94,5.67a83.45,83.45,0,0,1-5,9c-.64,1-1.74,2.45-2.52,3.48C106,65,105.73,68.32,105.63,68.71Z"/><path class="cls-11" d="M126.65,54.72a13.42,13.42,0,0,1,2-.21,22,22,0,0,1,.61,4.45,97.73,97.73,0,0,1-.15,11.48c-.38,4-1.35,7.94-1.67,12-.14,1.9-.32,3.8-.48,5.7a10.33,10.33,0,0,1-3.18-.36c.46-4.74.88-9.48,1.77-14.18a39.32,39.32,0,0,0,.55-5.44c.1-2.08.08-4.15.07-6.23a38,38,0,0,0-.33-4.64c-.05-.42,0-2.23.78-2.54"/><path class="cls-11" d="M93.61,48.17A3.3,3.3,0,0,1,93,44.71a5.34,5.34,0,0,0,2.27-.4c1.37-.28,2.72-.63,4.14-1a6.18,6.18,0,0,0,.46,2.58c.61.11,1.2.23,1.79.32.35,0,.67,0,.61-.49h0c.73.18,1.18-.46,1.79-.63,1.88-.54,5.86,0,7.85.25-.3,1-1.52,1.6-1.69,2.64-1.9-.13-4.78-.87-6.59.68l.27-2.09c-.28-.19-.5-.25-.7-.12-.54,3.12-1.16,6.18-1.57,9.28-.36,2.75-.83,5.49-1,8.26A10.69,10.69,0,0,1,97,63.58c0-1,.2-2,.31-3,.55-4.69,1.31-9.34,2.11-14,0-.27.2-.57-.13-.79-.3.16-.23.44-.28.66s-.11.56-.44.62C96.89,47.4,95.29,48,93.61,48.17Z"/><path class="cls-11" d="M118.55,88.8c-1.32-1.75-.68-3.7-.55-5.59s.29-3.81.46-5.7c.28-3.15.58-6.29.71-9.45,0-.49,0-1,0-1.48a11.25,11.25,0,0,1,.32-2.17,33.9,33.9,0,0,1,1.8-5.58h1.22a4.89,4.89,0,0,1-.1,1.8c-.24,2.4,0,4.81-.06,7.21,0,2.65-.29,5.27-.56,7.9s-.42,5-.63,7.49c-.08.94-.17,1.89-.27,2.84a3.6,3.6,0,0,0,.19,1.69A2.78,2.78,0,0,1,118.55,88.8Z"/><path class="cls-11" d="M106.77,87.84c.85-2.54,1.37-5.16,2.07-7.73,1.15-4.3,2.12-8.64,3.65-12.82.25-.67.54-1.31.84-2a2.76,2.76,0,0,0,.27-1.1h0A26.67,26.67,0,0,1,117,65.71c-.67,1.69-1.31,3.31-1.94,4.93-1.21,3.1-1.9,6.37-2.84,9.56-.81,2.74-1.31,5.57-2.19,8.29-.07.22-.09.43-.36.48A3.22,3.22,0,0,1,106.77,87.84Z"/><path class="cls-11" d="M115.18,62.67a16.87,16.87,0,0,1,1.32-3.6c1.12-2.69,2.19-11.91,2.43-12.43-.31-.46,2.11-.35,2.26.11.53,1.65.5,7,.17,8.74A42,42,0,0,1,118.52,64Z"/><path class="cls-11" d="M107.81,55a12.86,12.86,0,0,1-.9,2.1,2.82,2.82,0,0,1-3.22,2,14.79,14.79,0,0,0-1.63,0,18.34,18.34,0,0,1,.41-3.49A44.53,44.53,0,0,0,107.81,55Z"/><path class="cls-11" d="M89.94,58.8a14.82,14.82,0,0,0,.26-3.31c2.44.41,4.79,0,7.2.37a19.37,19.37,0,0,1-.35,3.1C94.67,58.75,92.35,58.89,89.94,58.8Z"/></g><g id="Element-6" data-name="Element"><path class="cls-12" d="M60.87,32.93a5.2,5.2,0,0,0-3.12-.17.82.82,0,0,0-.7.85,44.63,44.63,0,0,0,0,5.3c-.17.1-.36.19-.41.41L61,56.56l.54-.61.36,1.9-.51.22,1.07,4.22A23.5,23.5,0,0,1,65,63.36a2.09,2.09,0,0,1,.5.64v.82A2.8,2.8,0,0,0,64.81,66c-.42.53.2.56.38.63a4.67,4.67,0,0,1,2.71,3.14c.61,1.75,1.15,3.52,1.68,5.32A9.81,9.81,0,0,0,73.82,74l-1-3.72c2.08.61,4,1.3,6,1.74a3.71,3.71,0,0,1,2.89,2.31c.17.39.29,1,.92,1h0A3.2,3.2,0,0,0,85.5,74c2.24.67,4.5,1.24,6.78,1.76.26.06.58.28.8-.1A3.29,3.29,0,0,0,94,72.44c0-.6-.52-.61-.93-.71-3-.74-6-1.55-9-2.52a1.16,1.16,0,0,1-.73-.47l-2.38-4a10.49,10.49,0,0,1,2.67.78,28.52,28.52,0,0,0,5.44,2.07c.79.21,1.65.71,2.5.06a2.77,2.77,0,0,0,1-2.53A1.59,1.59,0,0,0,92.32,64c-.77-.84-1.54-1.69-2.28-2.56-1.48-1.72-2.94-3.47-4.46-5.27A15.22,15.22,0,0,1,88.29,56c1.74,2.38,3.7,4.54,5.54,6.8.18.22.32.64.76.33a10.24,10.24,0,0,0,2.49-2,.5.5,0,0,0,0-.83c-.2-.22-.38-.46-.57-.69l-3.72-4.48c.88-.09,1.23-.53,1.2-1.26a3.55,3.55,0,0,0-.61-2.39A1,1,0,0,0,92.14,51c-.68.19-1.36.32-2.06.47-.7-1-1.37-1.9-2.17-3l4.19.7c.25,0,.53.26.7-.12a8.2,8.2,0,0,0,.72-3.37c.08-.39-.17-.45-.46-.51a41.53,41.53,0,0,0-8.16-1,1.55,1.55,0,0,1-1.23-.49c-1.62-1.74-3.33-3.39-5.09-5a29.11,29.11,0,0,0-4-3,2.4,2.4,0,0,1-.5.64c-2.13,1.59-.88,3.08-.88,3.08a31.72,31.72,0,0,0,2.58,2.52c.76.66,1.45,1.4,2.28,2.21l-3.36.32c-1.44-1.66-1.44-1.66-3-1-.19-.34-.39-.68-.76-1.23l-7-6.6c-.83.43-1.64.9-2.53,1.38,0-1.09,0-2.07.06-3A.84.84,0,0,0,60.87,32.93Zm8.84,27.16a21.22,21.22,0,0,0,4.14,1.71,1.15,1.15,0,0,1,.75.44l2.84,4.95c-2.44-.68-4.59-1.62-6.81-2.42-1.83-.66-1.66-1.44-1.78-1.65a15,15,0,0,0-1.59-2.06s0,0,0,0a1.22,1.22,0,0,1,0-.75A2.09,2.09,0,0,1,69.71,60.09Zm14.34,1-.08.12c-2.07-.85-4.16-1.69-6.22-2.58-.56-.25-.57-1-.94-1.47a22.36,22.36,0,0,1,3.39-.68ZM82.54,48.52a40.7,40.7,0,0,1,2.65,3.26,14.81,14.81,0,0,1-2.76.21.62.62,0,0,1-.51-.19c-1.14-1.13-2.28-2.24-3.43-3.36l.12-.31,3.32.06A.76.76,0,0,1,82.54,48.52ZM70,50.85c.32.43.64.78.72.74h0L74,50.17c1,.71,1.72,1.65,2.66,2.47-.51.34-1,.27-1.56.49-.17-.38-.34-.74-.53-1.17a13.07,13.07,0,0,0-3.86,1.42L69,55.5c-.09.15-2.27.48-2.52.61-.56,0-2-13-1.68-13.65C65.89,42.57,68.82,48.3,70,50.85Z"/><path class="cls-12" d="M59,58.89l2-2.33L56.65,39.32c-.63.31,0,.78-.18,1.25l-.82.64A28,28,0,0,0,51,45.44a4.75,4.75,0,0,0-1.33,3.4c-.19.06-.07.37-.31.4a4.16,4.16,0,0,0-2.12-1.32,1.19,1.19,0,0,0-1.47.54c-1.07,1.81-2.17,3.6-3.27,5.39-.16.26-.33.51-.11.82a3.28,3.28,0,0,0,2.87,2c.6.16.84-.26,1.09-.66l2.13-3.48,4.37,6c-1.77,1.66-3.47,3.27-5.19,4.86-.35.32-.53.62-.25,1.05A9.29,9.29,0,0,0,49.73,67a.58.58,0,0,0,.86-.1c.61-.59,1.22-1.17,1.85-1.73a40.84,40.84,0,0,1,3.2-2.94c.75,1,1.45,1.85,2.17,2.74.19.25.36.63.74.19a10.72,10.72,0,0,0,2.89-2.25c.35-.21.59-.59,1.05-.61l-1.07-4.22A18.16,18.16,0,0,1,59,58.89ZM53.85,50c0-2.16,1.88-3.15,3.45-4.4a79.58,79.58,0,0,1-.08,8.45l-.53.61C55.16,53.44,53.84,52,53.85,50Z"/><path class="cls-13" d="M68.44,62.19a38.94,38.94,0,0,1,4.46,10.6,3.4,3.4,0,0,1,.06.61l-2.85.81c-.41-1.26-.79-2.48-1.19-3.69a37.31,37.31,0,0,0-3.24-7,1.94,1.94,0,0,0-.5-.63c-.61-.37-2.23-2.49-2.14-3.25a14.61,14.61,0,0,0-.93-6.32,50.89,50.89,0,0,1-1.92-4.79c-1.16-3.22-2.26-6.46-3.38-9.69,0-.22.24-.31.41-.4a8,8,0,0,1,2.34-.88c.5-.05.76.07.92.52.68,2,1.22,4.08,1.94,6.08a83.76,83.76,0,0,1,2.82,9.93c.26,1.16.51,2.95.68,4.24C66.06,59.35,68.23,61.85,68.44,62.19Z"/><path class="cls-13" d="M73.36,37.41c.49-.46.69-1.16,1.28-1.59a21.86,21.86,0,0,1,3.58,2.71,95.52,95.52,0,0,1,8,8.2c2.58,3.11,4.68,6.56,7.31,9.62,1.24,1.45,2.46,2.91,3.69,4.37a10.72,10.72,0,0,1-2.49,2c-3-3.68-6.1-7.32-8.8-11.26a38.7,38.7,0,0,0-3.46-4.23c-1.41-1.53-2.89-3-4.36-4.44a37.72,37.72,0,0,0-3.53-3c-.33-.26-1.55-1.61-1.24-2.35"/><path class="cls-13" d="M45.41,56.24a3.32,3.32,0,0,1-2.88-2c.69-.46.91-1.26,1.33-1.9.76-1.17,1.47-2.38,2.23-3.62a6.06,6.06,0,0,0,2.15,1.49c.51-.35,1-.68,1.49-1,.29-.21.49-.46.09-.77h0c.64-.39.51-1.16.82-1.72.94-1.71,4.13-4.15,5.72-5.39.5.93,0,2.21.67,3.06-1.43,1.27-4,2.78-4.16,5.16l-1.3-1.66c-.33,0-.52.17-.57.4,1.82,2.59,3.55,5.19,5.46,7.67,1.7,2.19,3.31,4.45,5.14,6.54a10.76,10.76,0,0,1-2.89,2.26c-.7-.73-1.28-1.56-1.91-2.35-2.93-3.69-5.69-7.5-8.41-11.35-.16-.23-.27-.54-.66-.46-.09.33.15.47.28.66s.32.48.13.75C47.18,53.37,46.46,54.91,45.41,56.24Z"/><path class="cls-13" d="M91.78,67.19c-2.17-.29-3.11-2.12-4.35-3.55s-2.49-2.89-3.71-4.35c-2-2.42-4-4.84-6.2-7.16-.33-.36-.68-.71-1-1a11.65,11.65,0,0,1-1.31-1.76,33.7,33.7,0,0,1-2.68-5.21l.85-.88a5,5,0,0,1,1.2,1.34c1.53,1.87,3.37,3.43,5.07,5.13,1.86,1.88,3.53,3.92,5.2,6s3.24,3.82,4.86,5.72c.61.73,1.22,1.46,1.82,2.2a3.62,3.62,0,0,0,1.33,1.06A2.77,2.77,0,0,1,91.78,67.19Z"/><path class="cls-13" d="M82.79,74.88c-1.2-2.39-2.68-4.61-4-6.92-2.23-3.85-4.62-7.6-6.5-11.64-.3-.64-.55-1.31-.79-2a2.59,2.59,0,0,0-.59-1h0A27.13,27.13,0,0,1,74.36,52c.73,1.67,1.42,3.26,2.12,4.85,1.35,3.06,3.17,5.85,4.77,8.76,1.37,2.51,3,4.86,4.33,7.41.1.2.24.36.08.59A3.23,3.23,0,0,1,82.79,74.88Z"/><path class="cls-13" d="M70.9,51.16a16.68,16.68,0,0,1-1.62-3.48c-1.12-2.69-6.89-10-7.09-10.49-.55-.11,1.24-1.75,1.67-1.53,1.54.8,5.35,4.63,6.31,6.05a42.11,42.11,0,0,1,4,8Z"/><path class="cls-13" d="M60.24,51a12.25,12.25,0,0,1,.84,2.12,2.8,2.8,0,0,1-.86,3.68c-.41.35-.76.77-1.14,1.16a18.76,18.76,0,0,1-2.19-2.75A43.91,43.91,0,0,0,60.24,51Z"/><path class="cls-13" d="M50.36,66.34a14.83,14.83,0,0,0-2.17-2.52c2-1.44,3.35-3.43,5.35-4.85a20.59,20.59,0,0,1,1.94,2.44C53.65,62.94,52.12,64.69,50.36,66.34Z"/></g><g id="Element-7" data-name="Element"><path class="cls-14" d="M11.73,68.72a5.36,5.36,0,0,0-2.36,2.06.82.82,0,0,0,.1,1.09,45.87,45.87,0,0,0,3.71,3.8.67.67,0,0,0,0,.57l15.17,9.29,0-.81,1.59,1.11-.21.51,3.71,2.27a23.9,23.9,0,0,1,2.55-1,1.87,1.87,0,0,1,.81.1l.58.59a2.79,2.79,0,0,0,.3,1.33c.07.68.53.26.71.19a4.64,4.64,0,0,1,4.13.36c1.66.82,3.28,1.71,4.91,2.62a9.77,9.77,0,0,0,2.26-3.76l-3.34-1.94c1.92-1,3.79-1.89,5.54-3a3.74,3.74,0,0,1,3.68-.37c.39.17.89.5,1.37.1h0A3.22,3.22,0,0,0,58,80.94c2.07-1.08,4.09-2.25,6.08-3.47.23-.14.61-.21.51-.63a3.33,3.33,0,0,0-1.59-3c-.45-.41-.81-.07-1.17.15-2.68,1.58-5.39,3.09-8.18,4.46a1.11,1.11,0,0,1-.85.17l-4.51-1.21a10.88,10.88,0,0,1,2.46-1.32,28.26,28.26,0,0,0,5.34-2.31c.71-.4,1.67-.65,1.83-1.71a2.76,2.76,0,0,0-1-2.53A1.53,1.53,0,0,0,56,69c-1.14-.07-2.28-.14-3.42-.24-2.26-.21-4.52-.44-6.87-.67a15,15,0,0,1,1.82-2c2.9.48,5.81.66,8.7,1,.28,0,.68.23.78-.29a10.28,10.28,0,0,0,.38-3.17c.06-.42-.13-.6-.54-.62s-.59-.07-.89-.1l-5.79-.61a1.12,1.12,0,0,0,0-1.74A3.55,3.55,0,0,0,48,59.28a1,1,0,0,0-1.3.51c-.35.6-.76,1.17-1.15,1.77l-3.66-.64,3.49-2.44c.21-.14.56-.17.41-.57A8.11,8.11,0,0,0,44,55c-.21-.33-.43-.2-.69,0a41.55,41.55,0,0,0-6.56,5,1.53,1.53,0,0,1-1.22.5c-2.37-.11-4.75-.1-7.12,0a29.7,29.7,0,0,0-5,.61,2.46,2.46,0,0,1,.08.81C23.05,64.45,25,64.63,25,64.63a31.12,31.12,0,0,0,3.61,0c1,0,2,0,3.17,0L29.59,67.2C27.4,67,27.4,67,26.76,68.63c-.38-.11-.76-.22-1.4-.35l-9.63.16c-.28.89-.54,1.79-.84,2.76-.75-.79-1.43-1.49-2.08-2.22A.83.83,0,0,0,11.73,68.72ZM37,82a20.91,20.91,0,0,0,4.16-1.67c.27-.12.52-.3.85-.2l5.48,1.56c-2.22,1.22-4.42,2-6.57,3-1.77.8-2.19.14-2.42.06a15.67,15.67,0,0,0-2.58-.36s0,0,0,0-.55-.43-.54-.51A2.09,2.09,0,0,1,37,82ZM48,72.7l0,.14c-2.09.84-4.16,1.7-6.26,2.5-.58.21-1.08-.29-1.7-.4a24.82,24.82,0,0,1,2-2.86Zm-9.85-8a39.61,39.61,0,0,1,4.17.49,15.63,15.63,0,0,1-1.83,2.08.65.65,0,0,1-.5.22c-1.59,0-3.19,0-4.79,0l-.14-.3c.81-.76,1.62-1.51,2.42-2.28A.78.78,0,0,1,38.12,64.74ZM30.78,75.16a2.2,2.2,0,0,0,1,0h0c.45-1.11.91-2.22,1.37-3.33,1.19-.17,2.38,0,3.62-.09-.13.6-.56.93-.77,1.45l-1.2-.47a13.33,13.33,0,0,0-1.77,3.71l.23,2.73c0,.17-1.28,1.93-1.37,2.2-.37.42-10.49-7.9-10.72-8.6C22.05,72.11,28.14,74.18,30.78,75.16Z"/><path class="cls-14" d="M28.49,88.63l-.16-3.1L13.16,76.24c-.23.67.57.55.75,1l-.14,1a28.18,28.18,0,0,0-.39,6.28A4.78,4.78,0,0,0,14.8,88c-.09.17.21.31.06.5a4.13,4.13,0,0,0-2.44.54,1.17,1.17,0,0,0-.67,1.41c.49,2,.94,4.09,1.41,6.15.07.3.12.59.49.66a3.31,3.31,0,0,0,3.46-.57c.53-.3.42-.77.32-1.23-.29-1.29-.58-2.58-.9-4l7.33,1.26c-.11,2.43-.2,4.77-.33,7.11,0,.48,0,.82.56.92a9.37,9.37,0,0,0,3.42.18c.4-.07.53-.29.54-.68,0-.85.06-1.69.12-2.53a42.55,42.55,0,0,1,.24-4.34l3.46.45c.31,0,.7.19.67-.38a11,11,0,0,0,.5-3.64c.1-.39,0-.83.33-1.17l-3.71-2.27A18.43,18.43,0,0,1,28.49,88.63Zm-9.86-2.77c-1.5-1.55-.86-3.56-.61-5.56a82.37,82.37,0,0,1,5.84,6.1l.05.81C21.94,87.4,20,87.3,18.63,85.86Z"/><path class="cls-15" d="M37.56,84.39a38.84,38.84,0,0,1,10.58,4.47,4.58,4.58,0,0,1,.47.39l-1.48,2.58C46,91.21,44.84,90.6,43.71,90a37.62,37.62,0,0,0-7.17-2.71,2,2,0,0,0-.81-.11c-.69.16-3.32-.23-3.79-.83a14.69,14.69,0,0,0-5.07-3.88,49.49,49.49,0,0,1-4.71-2.08C19.08,78.9,16,77.35,13,75.82a.73.73,0,0,1,0-.58A8.21,8.21,0,0,1,14.05,73c.33-.38.6-.48,1-.27,1.9,1,3.72,2.06,5.63,3a84.13,84.13,0,0,1,8.94,5.14c1,.65,2.43,1.76,3.45,2.56C33.87,84,37.17,84.29,37.56,84.39Z"/><path class="cls-15" d="M23.8,63.2c0-.67-.32-1.31-.19-2a22,22,0,0,1,4.46-.56,95.17,95.17,0,0,1,11.45.27c4,.42,7.93,1.43,11.95,1.78,1.89.17,3.79.37,5.68.55a10.35,10.35,0,0,1-.38,3.18c-4.73-.51-9.47-1-14.15-1.92a39.23,39.23,0,0,0-5.43-.61c-2.07-.11-4.15-.12-6.22-.13a37.9,37.9,0,0,0-4.64.29c-.42,0-2.23-.08-2.53-.82"/><path class="cls-15" d="M16.92,96.21a3.3,3.3,0,0,1-3.46.58,5.53,5.53,0,0,0-.38-2.28c-.26-1.37-.6-2.73-.92-4.16a6.17,6.17,0,0,0,2.58-.43c.12-.61.24-1.19.34-1.78.06-.36,0-.68-.48-.62h0c.18-.73-.44-1.18-.61-1.8-.52-1.89.06-5.86.33-7.86,1,.31,1.58,1.54,2.62,1.73-.15,1.9-.91,4.77.61,6.6l-2.08-.29c-.2.27-.25.49-.13.69,3.11.58,6.16,1.23,9.26,1.67,2.74.39,5.47.88,8.24,1.1a10.88,10.88,0,0,1-.5,3.63c-1,0-2-.21-3-.34-4.67-.6-9.31-1.4-13.94-2.25-.27-.05-.57-.2-.79.12.16.3.43.24.66.29s.56.12.61.44C16.18,92.92,16.74,94.53,16.92,96.21Z"/><path class="cls-15" d="M57.76,71.66c-1.76,1.3-3.7.65-5.59.5s-3.8-.33-5.69-.52c-3.14-.32-6.28-.65-9.43-.81-.49,0-1,0-1.48,0a11.31,11.31,0,0,1-2.16-.35,34.42,34.42,0,0,1-5.55-1.85V67.39a5.06,5.06,0,0,1,1.79.12c2.4.27,4.8.1,7.2.14,2.65,0,5.26.34,7.89.63,2.48.28,5,.48,7.47.71.95.09,1.89.19,2.84.3a3.6,3.6,0,0,0,1.69-.17A2.78,2.78,0,0,1,57.76,71.66Z"/><path class="cls-15" d="M56.68,83.45C54.16,82.57,51.54,82,49,81.3c-4.28-1.2-8.61-2.21-12.77-3.79-.66-.25-1.31-.56-2-.86a2.59,2.59,0,0,0-1.09-.28h0a26.73,26.73,0,0,1,1.5-3.44l4.9,2c3.09,1.25,6.35,2,9.52,2.94,2.73.84,5.55,1.37,8.26,2.28.22.07.43.09.48.37A3.24,3.24,0,0,1,56.68,83.45Z"/><path class="cls-15" d="M31.62,74.76A17,17,0,0,1,28,73.41c-2.67-1.15-11.87-2.31-12.39-2.56-.46.3-.33-2.12.13-2.26,1.66-.51,7-.43,8.73-.08A42.39,42.39,0,0,1,33,71.43Z"/><path class="cls-15" d="M23.85,82.06a13.49,13.49,0,0,1,2.08.93,2.81,2.81,0,0,1,1.95,3.24,14.94,14.94,0,0,0,0,1.64,19.19,19.19,0,0,1-3.48-.45A46.56,46.56,0,0,0,23.85,82.06Z"/><path class="cls-15" d="M27.5,100a15.28,15.28,0,0,0-3.31-.29c.44-2.43,0-4.8.45-7.21a20.56,20.56,0,0,1,3.09.39C27.49,95.25,27.61,97.58,27.5,100Z"/></g><g id="Element-8" data-name="Element"><path class="cls-16" d="M1.76,129a5.36,5.36,0,0,0-.2,3.12.83.83,0,0,0,.85.71,46.84,46.84,0,0,0,5.3,0c.09.17.18.35.4.41L25.37,129l-.6-.54,1.9-.34a5.49,5.49,0,0,1,.21.51l4.23-1a24.85,24.85,0,0,1,1.09-2.52,2.13,2.13,0,0,1,.65-.5h.82a2.81,2.81,0,0,0,1.16.72c.53.43.56-.19.63-.37a4.66,4.66,0,0,1,3.16-2.68c1.76-.6,3.53-1.13,5.33-1.64a9.84,9.84,0,0,0-1.08-4.25l-3.73,1c.63-2.07,1.34-4,1.8-6a3.7,3.7,0,0,1,2.33-2.87c.39-.17,1-.28,1-.91h0A3.23,3.23,0,0,0,43,104.69c.7-2.23,1.29-4.49,1.83-6.76.06-.26.28-.58-.09-.8a3.31,3.31,0,0,0-3.24-1c-.6,0-.62.52-.72.93-.77,3-1.61,6-2.6,9a1.11,1.11,0,0,1-.48.72l-4,2.35a10.56,10.56,0,0,1,.8-2.67A29.27,29.27,0,0,0,36.63,101c.21-.78.72-1.64.08-2.5a2.76,2.76,0,0,0-2.52-1.06,1.53,1.53,0,0,0-1.06.33c-.85.77-1.7,1.53-2.57,2.26-1.74,1.46-3.5,2.9-5.32,4.41a16,16,0,0,1-.15-2.71c2.39-1.72,4.57-3.66,6.84-5.48.22-.18.64-.32.34-.76a10.21,10.21,0,0,0-2-2.51c-.25-.33-.52-.32-.82,0s-.46.38-.69.57l-4.52,3.68C24.18,96.31,23.75,96,23,96a3.57,3.57,0,0,0-2.39.59,1,1,0,0,0-.55,1.28c.17.68.3,1.37.45,2.07l-3,2.15.73-4.2c.05-.25.27-.52-.12-.7a8.08,8.08,0,0,0-3.36-.75c-.38-.09-.44.16-.51.46A42.28,42.28,0,0,0,13.11,105a1.58,1.58,0,0,1-.5,1.23c-1.75,1.6-3.42,3.3-5,5a29.14,29.14,0,0,0-3.08,4,2.36,2.36,0,0,1,.63.5c1.57,2.15,3.07.91,3.07.91a29,29,0,0,0,2.54-2.56c.67-.75,1.42-1.44,2.23-2.26.1,1.22.2,2.3.29,3.36-1.67,1.44-1.67,1.44-1,3-.34.19-.68.39-1.23.74l-6.66,7c.42.83.88,1.65,1.36,2.54-1.09,0-2.07,0-3-.09A.85.85,0,0,0,1.76,129ZM29,120.37a20.58,20.58,0,0,0,1.75-4.12c.1-.28.16-.59.45-.75l5-2.8c-.7,2.44-1.66,4.58-2.48,6.79-.68,1.83-1.45,1.66-1.67,1.77a15.4,15.4,0,0,0-2.07,1.58h0a1.12,1.12,0,0,1-.74,0A2.09,2.09,0,0,1,29,120.37ZM30.12,106l.12.08c-.88,2.07-1.73,4.15-2.64,6.2-.25.56-1,.57-1.48.93a24.85,24.85,0,0,1-.65-3.4Q27.8,108,30.12,106Zm-12.59,1.4a39,39,0,0,1,3.29-2.62,14.7,14.7,0,0,1,.18,2.76.63.63,0,0,1-.19.51c-1.14,1.12-2.26,2.26-3.39,3.4l-.31-.12c0-1.11.07-2.22.09-3.32A.77.77,0,0,1,17.53,107.43ZM19.75,120c.43-.31.78-.63.75-.71h0c-.47-1.11-.93-2.22-1.4-3.32.72-1,1.67-1.71,2.5-2.64.33.52.26,1,.47,1.57l-1.17.51a13,13,0,0,0,1.39,3.88L24.38,121c.15.09.47,2.27.6,2.52,0,.56-13,1.89-13.66,1.56C11.44,124,17.2,121.16,19.75,120Z"/><path class="cls-16" d="M27.68,131.1,25.37,129,8.11,133.26c.3.63.78,0,1.24.19l.64.83a27.9,27.9,0,0,0,4.18,4.7,4.77,4.77,0,0,0,3.38,1.36c.07.19.37.08.41.32a4.15,4.15,0,0,0-1.35,2.11,1.2,1.2,0,0,0,.53,1.47c1.8,1.09,3.58,2.21,5.36,3.33.26.16.51.33.82.12a3.32,3.32,0,0,0,2-2.87c.16-.59-.26-.84-.65-1.09l-3.46-2.17,6.06-4.31c1.65,1.78,3.24,3.5,4.81,5.24.32.35.62.54,1,.25a9.26,9.26,0,0,0,2.53-2.3.6.6,0,0,0-.09-.87c-.59-.61-1.16-1.23-1.72-1.87a40.9,40.9,0,0,1-2.9-3.22l2.75-2.15c.25-.19.63-.36.21-.74a10.9,10.9,0,0,0-2.23-2.91c-.21-.35-.59-.6-.6-1.06l-4.23,1A16.25,16.25,0,0,1,27.68,131.1Zm-8.9,5.05c-2.16,0-3.13-1.9-4.38-3.49a82.44,82.44,0,0,1,8.45.16l.6.54C22.2,134.88,20.76,136.19,18.78,136.15Z"/><path class="cls-17" d="M31.07,121.67a38.52,38.52,0,0,1,10.62-4.37,3.49,3.49,0,0,1,.61-.06c.27,1,.52,1.9.79,2.87-1.27.39-2.49.76-3.7,1.15a37.53,37.53,0,0,0-7,3.18,2.09,2.09,0,0,0-.64.5c-.38.6-2.51,2.2-3.26,2.1a14.7,14.7,0,0,0-6.33.88,50.61,50.61,0,0,1-4.79,1.88c-3.23,1.13-6.48,2.2-9.72,3.29-.22-.05-.3-.23-.4-.41a8,8,0,0,1-.85-2.35c0-.5.07-.76.52-.91,2-.67,4.09-1.19,6.1-1.89A85.5,85.5,0,0,1,23,124.79c1.16-.24,3-.48,4.24-.64C28.2,124,30.72,121.87,31.07,121.67Z"/><path class="cls-17" d="M6.35,116.52c-.45-.5-1.15-.71-1.57-1.3a21.44,21.44,0,0,1,2.74-3.56,94,94,0,0,1,8.26-8c3.13-2.55,6.6-4.63,9.68-7.23,1.46-1.23,2.93-2.44,4.4-3.65a10.26,10.26,0,0,1,2,2.51c-3.7,3-7.37,6-11.32,8.7a37.72,37.72,0,0,0-4.27,3.43c-1.54,1.39-3,2.86-4.47,4.32a39.22,39.22,0,0,0-3.07,3.5c-.26.33-1.62,1.54-2.36,1.23"/><path class="cls-17" d="M24.91,144.66a3.29,3.29,0,0,1-2,2.86c-.45-.69-1.24-.91-1.88-1.34-1.16-.77-2.36-1.49-3.6-2.27a6.16,6.16,0,0,0,1.52-2.14c-.35-.51-.68-1-1-1.49-.21-.29-.46-.5-.77-.1h0c-.39-.65-1.15-.52-1.71-.84-1.7-1-4.11-4.17-5.33-5.77.92-.49,2.2,0,3.06-.64,1.25,1.44,2.74,4,5.11,4.21l-1.67,1.28c.06.33.17.52.4.58,2.6-1.8,5.22-3.52,7.71-5.4,2.21-1.68,4.48-3.27,6.58-5.09a10.79,10.79,0,0,1,2.23,2.92c-.73.69-1.56,1.27-2.36,1.89-3.71,2.9-7.55,5.63-11.42,8.32-.23.15-.54.25-.47.65.33.09.48-.15.67-.27s.48-.32.75-.13C22.06,142.86,23.59,143.6,24.91,144.66Z"/><path class="cls-17" d="M36.27,98.35c-.31,2.17-2.14,3.09-3.58,4.32s-2.91,2.46-4.38,3.68c-2.44,2-4.88,4-7.21,6.13a14.73,14.73,0,0,0-1.05,1,12.31,12.31,0,0,1-1.77,1.29,34.16,34.16,0,0,1-5.23,2.64l-.87-.86a4.89,4.89,0,0,1,1.35-1.19c1.88-1.52,3.46-3.34,5.17-5a77.49,77.49,0,0,1,6-5.16c1.95-1.57,3.84-3.21,5.76-4.81.73-.61,1.47-1.21,2.21-1.81a3.58,3.58,0,0,0,1.07-1.31A2.73,2.73,0,0,1,36.27,98.35Z"/><path class="cls-17" d="M43.87,107.42c-2.4,1.17-4.63,2.64-6.95,4-3.86,2.19-7.63,4.55-11.68,6.4-.65.29-1.32.53-2,.77a2.72,2.72,0,0,0-1,.59h0a28.44,28.44,0,0,1-1.38-3.49l4.87-2.08c3.06-1.32,5.86-3.12,8.79-4.7,2.52-1.35,4.88-3,7.44-4.26.2-.1.36-.24.59-.08A3.24,3.24,0,0,1,43.87,107.42Z"/><path class="cls-17" d="M20.06,119.1a16.61,16.61,0,0,1-3.48,1.6c-2.7,1.08-10,6.8-10.55,7-.11.55-1.73-1.25-1.51-1.68.81-1.54,4.67-5.31,6.1-6.26a42.11,42.11,0,0,1,8.05-4Z"/><path class="cls-17" d="M19.76,129.77a13.46,13.46,0,0,1,2.13-.83,2.81,2.81,0,0,1,3.67.9A15.72,15.72,0,0,0,26.71,131a19.9,19.9,0,0,1-2.77,2.16A46.66,46.66,0,0,0,19.76,129.77Z"/><path class="cls-17" d="M35,139.8A15.62,15.62,0,0,0,32.51,142c-1.42-2-3.4-3.39-4.8-5.4a19.78,19.78,0,0,1,2.46-1.92C31.68,136.47,33.41,138,35,139.8Z"/></g><path d="M243.38,164.43,221,116.85a1.09,1.09,0,0,0-1-.66H199.67a.74.74,0,0,0-.85.83v46.91a1.89,1.89,0,0,1-.59,1.4,2,2,0,0,1-1.44.58H181.2a2,2,0,0,1-1.44-.58,1.85,1.85,0,0,1-.59-1.4V52.27a1.85,1.85,0,0,1,.59-1.4,2,2,0,0,1,1.44-.58h46.59a38.54,38.54,0,0,1,18.3,4.21,30.2,30.2,0,0,1,12.36,11.89A34.7,34.7,0,0,1,262.86,84q0,11.4-6,19.41a31.16,31.16,0,0,1-16.69,11.15.54.54,0,0,0-.51.33.7.7,0,0,0,0,.66l23.89,48.07a2.59,2.59,0,0,1,.34,1c0,.88-.63,1.32-1.87,1.32H245.75A2.39,2.39,0,0,1,243.38,164.43Zm-44.56-96.8V100.5a.74.74,0,0,0,.85.83h25.41q8.13,0,13.13-4.71t5-12.47q0-7.77-5-12.55t-13.13-4.79H199.67C199.1,66.81,198.82,67.08,198.82,67.63Z"/><path d="M300.64,162.53a36,36,0,0,1-15.16-14.29,41.86,41.86,0,0,1-5.34-21.31V89.27a40.52,40.52,0,0,1,5.42-21.06A36.94,36.94,0,0,1,300.72,54a53,53,0,0,1,45.07,0A36.94,36.94,0,0,1,361,68.21a40.52,40.52,0,0,1,5.42,21.06v37.66A41.31,41.31,0,0,1,361,148.24a36.74,36.74,0,0,1-15.16,14.29q-9.75,5-22.62,5A48.67,48.67,0,0,1,300.64,162.53Zm39.64-17.93q6.44-6.43,6.44-17V89.1q0-10.72-6.44-17.17t-17.11-6.45q-10.5,0-16.94,6.45T299.79,89.1v38.49q0,10.57,6.44,17t16.94,6.45Q333.85,151.05,340.28,144.6Z"/><path d="M403.47,163.1a34.55,34.55,0,0,1-15.16-11.56A29.2,29.2,0,0,1,383,134V129.9a1.88,1.88,0,0,1,.6-1.4,2,2,0,0,1,1.44-.58h15.07a2,2,0,0,1,1.45.58,1.9,1.9,0,0,1,.59,1.4V133q0,7.61,6.94,12.64t19,5q10.33,0,15.58-4.3a13.65,13.65,0,0,0,5.26-11.07,11.33,11.33,0,0,0-2.88-7.84,27.12,27.12,0,0,0-8.22-5.87q-5.34-2.64-16-6.6a169.55,169.55,0,0,1-19.48-8.1,36.1,36.1,0,0,1-12.46-10.32q-5-6.53-5-16.27,0-14.53,10.84-23t29-8.42a55.26,55.26,0,0,1,22.45,4.29,35.67,35.67,0,0,1,15.16,12A30,30,0,0,1,467.68,83V85.8a1.89,1.89,0,0,1-.59,1.4,2,2,0,0,1-1.44.58H450.4A2,2,0,0,1,449,87.2a1.85,1.85,0,0,1-.59-1.4V84q0-7.76-6.52-13.13T423.8,65.48q-9.32,0-14.48,3.8A12.54,12.54,0,0,0,404.15,80a11.92,11.92,0,0,0,2.71,8.09,24.19,24.19,0,0,0,8.13,5.7q5.43,2.56,16.78,6.53A193.89,193.89,0,0,1,451,108.43a36.71,36.71,0,0,1,12.37,10.16q5.17,6.52,5.17,16.27,0,14.87-11.27,23.62t-30.75,8.75Q413.29,167.23,403.47,163.1Z"/><path d="M565.52,50.87a1.85,1.85,0,0,1,.59,1.4V65a1.85,1.85,0,0,1-.59,1.4,2,2,0,0,1-1.44.58H532.91a.74.74,0,0,0-.85.83v96.13a1.89,1.89,0,0,1-.59,1.4,2,2,0,0,1-1.44.58H514.44a2,2,0,0,1-1.44-.58,1.89,1.89,0,0,1-.59-1.4V67.8a.74.74,0,0,0-.85-.83h-30a2,2,0,0,1-1.43-.58,1.86,1.86,0,0,1-.6-1.4V52.27a1.86,1.86,0,0,1,.6-1.4,2,2,0,0,1,1.43-.58h82.51A2,2,0,0,1,565.52,50.87Z"/><path d="M587.8,164.26V51.94a1.48,1.48,0,0,1,1.69-1.65h8.64a1.48,1.48,0,0,1,1.7,1.65V155c0,.44.22.66.68.66h59.8a1.48,1.48,0,0,1,1.69,1.65v6.94a1.48,1.48,0,0,1-1.69,1.65H589.49A1.48,1.48,0,0,1,587.8,164.26Z"/><path d="M742.48,164.59l-6.78-20.81a.67.67,0,0,0-.68-.5H684.36a.66.66,0,0,0-.67.5l-6.78,20.81a2,2,0,0,1-2,1.32h-9.15c-1.24,0-1.7-.6-1.36-1.82L701.82,51.61a2,2,0,0,1,2-1.32h11.52a2,2,0,0,1,2,1.32L755,164.09l.17.67c0,.77-.51,1.15-1.52,1.15h-9.15A2,2,0,0,1,742.48,164.59Zm-55.32-31.14a.81.81,0,0,0,.59.25h43.71a.82.82,0,0,0,.6-.25.44.44,0,0,0,.08-.57l-22-67.4a.56.56,0,0,0-.51-.33.54.54,0,0,0-.51.33l-22,67.4A.43.43,0,0,0,687.16,133.45Z"/><path d="M819.56,106.61a29,29,0,0,1,13.89,10.74q4.74,7.11,4.74,17.18,0,14.86-9.74,23.12t-25.66,8.26h-41a1.48,1.48,0,0,1-1.7-1.65V51.94a1.48,1.48,0,0,1,1.7-1.65H801.6q16.44,0,25.84,7.93t9.4,22.3A26.11,26.11,0,0,1,832.35,96a27.67,27.67,0,0,1-12.79,9.66Q818.71,106.12,819.56,106.61ZM772.12,61.19v39.64a.59.59,0,0,0,.68.66h28.8q10.68,0,17-5.45T825,81.51q0-9.58-6.35-15.28t-17-5.7H772.8A.59.59,0,0,0,772.12,61.19Zm47.69,88.37q6.36-5.94,6.36-16t-6.53-16.11q-6.52-6-17.53-6H772.8a.59.59,0,0,0-.68.66v42.79a.59.59,0,0,0,.68.66h30Q813.46,155.51,819.81,149.56Z"/></g></svg>